<?xml version="1.0" standalone="no"?><!DOCTYPE svg PUBLIC "-//W3C//DTD SVG 1.1//EN" "http://www.w3.org/Graphics/SVG/1.1/DTD/svg11.dtd"><svg height="1185" node-id="1" sillyvg="true" template-height="1185" template-width="1200" version="1.1" viewBox="0 0 1200 1185" width="1200" xmlns="http://www.w3.org/2000/svg" xmlns:xlink="http://www.w3.org/1999/xlink"><defs node-id="86"></defs><g node-id="88"><path d="M 1132.11 323.41 L 1059.43 322.11 C 1049.08 249.50 1016.10 191.09 960.50 146.87 C 903.87 101.83 838.27 84.31 763.68 94.29 C 630.29 57.12 474.03 166.97 544.73 314.41 C 541.61 321.27 536.56 323.92 529.57 322.36 C 500.93 292.77 467.03 271.71 427.86 259.18 C 398.65 250.84 368.83 248.62 338.42 252.52 C 320.42 250.34 303.49 253.94 287.63 263.31 C 263.06 272.97 240.89 286.40 221.12 303.62 C 145.61 371.24 117.38 488.73 173.35 579.46 L 198.25 616.20 C 124.45 691.90 101.93 781.87 130.69 886.13 L 96.79 903.08 C 86.25 886.43 80.52 870.35 69.36 851.36 C 61.29 837.68 59.31 821.96 52.23 808.52 C 43.92 792.66 38.34 777.41 35.46 762.78 C 30.53 737.70 21.59 712.67 18.14 692.14 C -29.94 403.54 140.80 120.43 417.63 30.92 C 524.39 -3.59 632.26 -11.36 740.69 18.60 C 748.33 20.69 756.41 19.21 763.37 21.37 C 927.71 71.30 1050.62 171.98 1132.11 323.41 Z M 496.15 114.78 C 496.16 113.80 495.78 112.86 495.09 112.16 C 494.40 111.46 493.46 111.06 492.48 111.05 L 381.29 110.08 C 379.25 110.06 377.58 111.70 377.56 113.75 L 376.59 224.70 C 376.58 225.68 376.96 226.62 377.65 227.32 C 378.34 228.02 379.27 228.42 380.26 228.43 L 491.45 229.40 C 493.49 229.41 495.16 227.77 495.18 225.73 L 496.15 114.78 Z" fill="#febf63" fill-rule="nonzero" group-id="1" id="形状" node-id="6" stroke="none" target-height="914.44" target-width="1162.0499" target-x="-29.94" target-y="-11.36"></path><path d="M 763.68 94.29 C 860.27 130.04 912.60 229.10 857.81 323.41 L 839.13 347.45 C 817.60 369.11 791.89 385.05 762.02 395.28 C 760.29 395.90 760.00 396.93 761.15 398.36 C 768.30 407.36 785.56 419.26 787.04 425.61 C 787.70 428.32 786.75 429.12 784.21 428.01 C 761.83 418.52 736.56 403.54 711.72 403.85 C 656.16 404.47 608.57 385.32 568.96 346.40 L 544.73 314.41 C 474.03 166.97 630.29 57.12 763.68 94.29 Z M 695.64 193.80 C 695.62 188.29 691.13 183.83 685.61 183.85 L 684.51 183.86 C 681.86 183.87 679.32 184.93 677.45 186.81 C 675.59 188.69 674.55 191.23 674.55 193.88 L 674.67 225.81 C 674.69 231.32 679.17 235.78 684.69 235.76 L 685.80 235.75 C 688.44 235.75 690.98 234.68 692.85 232.80 C 694.71 230.93 695.76 228.38 695.75 225.73 L 695.64 193.80 Z M 753.88 207.22 C 756.63 210.26 756.78 213.22 754.31 216.09 C 752.75 217.90 752.38 219.94 753.20 222.20 C 754.72 226.39 757.09 230.04 760.29 233.17 C 763.78 236.58 765.06 235.90 764.11 231.13 L 754.93 185.83 C 754.58 184.33 753.25 183.26 751.72 183.25 C 750.18 183.23 748.83 184.27 748.46 185.77 L 738.41 231.07 C 737.67 234.32 738.70 235.06 741.49 233.29 C 744.94 231.11 747.10 227.87 747.96 223.55 C 748.33 221.70 748.46 219.83 748.33 217.94 C 748.17 214.65 748.52 211.43 749.38 208.26 C 750.24 205.18 751.74 204.83 753.88 207.22 Z M 795.67 194.58 C 795.67 188.79 790.98 184.10 785.19 184.10 L 784.08 184.10 C 778.30 184.10 773.60 188.79 773.60 194.58 L 773.60 224.91 C 773.60 230.69 778.30 235.39 784.08 235.39 L 785.19 235.39 C 790.98 235.39 795.67 230.69 795.67 224.91 L 795.67 194.58 Z M 813.67 225.83 C 810.67 215.97 813.79 210.63 823.04 209.81 C 826.78 209.48 827.05 208.35 823.84 206.42 C 821.95 205.31 819.92 204.79 817.74 204.87 C 816.05 204.96 814.72 204.30 813.73 202.90 C 810.90 198.92 811.14 195.34 814.47 192.18 C 816.28 190.45 818.42 189.59 820.88 189.59 L 823.97 189.59 C 830.01 189.59 830.36 188.17 825.01 185.33 C 819.75 182.58 814.60 182.50 809.54 185.09 C 807.61 186.07 806.62 187.66 806.58 189.83 L 806.40 229.53 C 806.40 231.91 807.53 233.54 809.79 234.40 C 815.42 236.41 821.21 236.56 827.17 234.83 C 832.92 233.19 832.84 231.85 826.92 230.83 L 817.43 229.16 C 815.50 228.83 814.25 227.72 813.67 225.83 Z M 581.10 226.57 C 580.79 222.87 582.83 187.55 580.79 186.26 C 578.57 184.86 577.44 185.48 577.40 188.11 L 576.66 229.35 C 576.62 231.89 577.75 233.72 580.05 234.83 C 583.55 236.43 587.12 236.41 590.78 234.77 C 593.90 233.37 593.82 232.24 590.53 231.38 C 588.81 230.97 587.00 230.68 585.11 230.52 C 582.64 230.35 581.31 229.04 581.10 226.57 Z M 618.70 204.26 C 619.32 214.41 621.09 224.50 624.00 234.52 C 626.35 242.66 627.48 242.50 627.39 234.03 C 627.27 217.31 623.90 201.24 617.28 185.83 C 616.90 184.84 615.90 184.23 614.85 184.35 C 613.79 184.46 612.94 185.27 612.78 186.32 L 604.40 230.27 C 604.21 231.20 604.68 232.14 605.53 232.56 C 606.39 232.98 607.41 232.78 608.04 232.06 C 617.90 220.96 606.13 211.28 615.37 202.90 C 617.43 201.01 618.54 201.46 618.70 204.26 Z M 639.04 187.55 C 639.17 201.55 635.71 218.68 639.91 232.43 C 640.32 233.66 641.12 234.03 642.31 233.54 C 644.41 232.67 643.60 215.05 643.67 211.96 C 643.71 209.79 644.28 207.79 645.39 205.98 C 649.54 199.16 649.56 192.40 645.45 185.70 C 644.65 184.36 643.04 183.73 641.54 184.16 C 640.03 184.60 639.01 185.99 639.04 187.55 Z M 660.80 208.76 L 664.81 184.35 C 664.93 183.81 664.91 183.57 664.75 183.61 C 659.20 185.66 656.71 188.87 657.29 193.22 C 657.58 195.57 657.12 197.72 655.93 199.70 C 648.99 211.33 649.46 222.59 657.35 233.48 C 658.32 234.77 660.04 235.24 661.53 234.61 C 663.02 233.99 663.89 232.42 663.64 230.83 L 660.80 214.86 C 660.47 212.81 660.47 210.77 660.80 208.76 Z M 713.14 225.59 L 712.83 187.61 C 712.75 175.70 711.14 175.49 708.02 187.00 C 704.07 201.75 704.55 216.42 709.44 231.01 C 710.05 232.82 711.27 234.03 713.07 234.65 C 735.88 242.60 731.69 198.83 728.85 187.18 C 727.29 180.65 725.90 180.69 724.66 187.31 C 723.06 195.69 727.07 227.93 718.25 229.72 C 714.88 230.41 713.18 229.04 713.14 225.59 Z M 673.44 295.05 L 678.37 304.24 C 678.86 305.10 679.50 305.25 680.28 304.67 C 684.60 301.53 675.23 262.32 673.62 255.42 C 673.20 253.51 671.53 252.13 669.57 252.09 C 667.61 252.04 665.87 253.34 665.36 255.23 C 661.67 267.85 659.20 280.65 657.97 293.64 C 657.23 301.20 659.55 302.29 664.93 296.90 L 667.64 294.19 C 669.95 291.89 671.88 292.18 673.44 295.05 Z M 732.12 299.00 C 730.56 295.71 728.30 292.94 725.34 290.68 C 721.64 287.84 720.27 288.71 721.21 293.27 C 726.76 320.45 762.26 294.07 729.90 271.32 C 728.13 270.09 727.58 268.45 728.24 266.39 L 730.03 260.60 C 731.22 256.86 732.90 256.61 735.08 259.86 L 739.15 265.96 C 741.12 268.92 742.41 268.65 743.03 265.16 C 744.14 258.99 741.18 254.97 734.15 253.08 C 730.18 252.01 726.02 254.09 724.42 257.95 C 719.90 268.71 723.08 277.16 733.97 283.28 C 735.90 284.35 736.85 285.99 736.81 288.21 L 736.68 298.01 C 736.65 299.12 735.87 300.06 734.79 300.29 C 733.71 300.52 732.61 299.99 732.12 299.00 L 732.12 299.00 Z M 752.83 288.03 C 750.55 301.90 764.85 310.03 775.08 302.02 C 776.73 300.75 776.52 299.92 774.47 299.55 L 762.51 297.40 C 759.10 296.78 757.91 294.81 758.93 291.48 L 760.85 285.25 C 761.54 283.12 763.02 282.05 765.28 282.05 L 767.75 282.05 C 770.26 282.05 771.12 280.86 770.34 278.47 C 769.19 274.86 767.26 273.56 764.54 274.59 C 761.83 275.66 760.27 274.73 759.86 271.82 L 759.06 266.08 C 758.69 263.12 759.94 261.25 762.82 260.47 L 772.19 257.95 C 775.60 257.04 775.74 255.75 772.62 254.06 C 747.96 240.63 754.19 279.46 752.83 288.03 Z M 795.55 259.98 L 802.64 265.47 C 804.49 266.91 805.84 266.54 806.71 264.36 C 807.32 262.84 807.01 260.99 805.78 258.81 C 802.62 253.14 797.99 251.45 791.91 253.76 C 784.89 256.39 782.26 261.95 784.02 270.46 C 784.43 272.39 785.42 273.95 786.98 275.14 C 793.80 280.36 798.65 286.96 801.53 294.93 C 803.58 300.60 802.00 301.94 796.78 298.94 C 793.12 296.84 789.88 294.19 787.04 290.99 C 784.41 288.07 783.12 288.58 783.16 292.53 C 783.16 304.18 802.76 309.79 806.21 297.46 C 811.21 279.58 786.61 275.21 790.49 261.71 C 791.36 258.62 793.04 258.05 795.55 259.98 Z M 609.76 260.60 L 613.22 267.62 C 614.45 270.09 615.56 270.05 616.54 267.50 C 618.85 261.42 617.41 257.21 612.23 254.86 C 591.89 245.56 595.53 280.32 595.96 290.62 C 596.88 311.70 621.91 306.03 617.04 287.84 C 614.90 279.79 613.59 279.91 613.09 288.21 C 612.85 291.99 611.28 295.36 608.41 298.32 C 607.09 299.64 605.63 299.78 604.03 298.75 C 600.21 296.23 602.06 268.61 603.35 260.41 C 603.48 259.39 604.05 258.89 605.08 258.93 C 605.65 258.93 606.23 258.91 606.81 258.87 C 608.16 258.79 609.15 259.36 609.76 260.60 Z M 636.33 295.92 L 634.73 256.34 C 634.69 255.28 634.15 254.62 633.13 254.37 C 632.14 254.13 631.24 254.19 630.41 254.56 C 628.93 255.17 628.19 256.28 628.19 257.89 L 628.19 297.40 C 628.19 299.66 629.18 301.32 631.15 302.39 C 636.45 305.35 642.15 305.72 648.23 303.50 C 653.69 301.53 653.53 300.25 647.73 299.68 L 639.04 298.75 C 637.32 298.59 636.41 297.64 636.33 295.92 Z M 691.01 296.29 C 694.25 303.97 699.60 306.52 707.03 303.93 C 709.09 303.23 710.44 301.86 711.10 299.80 C 714.88 288.01 711.29 279.19 700.31 273.36 C 698.18 272.21 697.23 270.44 697.48 268.06 L 697.97 263.25 C 698.30 259.96 700.01 258.89 703.09 260.04 C 705.55 260.91 706.91 262.49 707.16 264.79 C 707.57 268.12 708.74 268.43 710.67 265.71 C 718.19 255.23 696.99 246.79 690.21 263.12 C 689.47 264.97 689.49 266.80 690.27 268.61 C 693.27 275.23 697.62 280.84 703.33 285.44 C 704.94 286.71 706.01 288.34 706.54 290.31 C 707.49 293.72 706.56 296.31 703.77 298.07 C 701.46 299.51 699.86 298.94 698.96 296.35 C 697.48 292.12 694.44 290.55 689.84 291.66 C 687.86 292.16 687.41 293.29 688.48 295.05 C 689.18 296.16 690.02 296.57 691.01 296.29 Z" fill="#f7ede5" fill-rule="nonzero" group-id="1" id="形状" node-id="7" stroke="none" target-height="372" target-width="438.56998" target-x="474.03" target-y="57.12"></path><path d="M 1059.43 322.11 L 857.81 323.41 C 912.60 229.10 860.27 130.04 763.68 94.29 C 838.27 84.31 903.87 101.83 960.50 146.87 C 1016.10 191.09 1049.08 249.50 1059.43 322.11 Z" fill="#e26452" fill-rule="nonzero" group-id="1" id="路径" node-id="8" stroke="none" target-height="239.1" target-width="295.75006" target-x="763.68" target-y="84.31"></path><g node-id="89"><path d="M 378.19 110.05 L 495.58 111.08 L 496.00 111.26 L 496.18 111.68 L 495.15 228.83 L 494.97 229.25 L 494.55 229.42 L 377.16 228.40 L 376.73 228.22 L 376.56 227.79 L 377.58 110.65 L 377.76 110.23 L 378.19 110.05 Z" fill="#e26452" fill-rule="nonzero" group-id="1,2" id="矩形" node-id="9" stroke="none" target-height="119.369995" target-width="119.619995" target-x="376.56" target-y="110.05"></path></g><path d="M 695.75 225.73 C 695.76 228.38 694.71 230.93 692.85 232.80 C 690.98 234.68 688.44 235.75 685.80 235.75 L 684.69 235.76 C 679.17 235.78 674.69 231.32 674.67 225.81 L 674.55 193.88 C 674.55 191.23 675.59 188.69 677.45 186.81 C 679.32 184.93 681.86 183.87 684.51 183.86 L 685.61 183.85 C 691.13 183.83 695.62 188.29 695.64 193.80 L 695.75 225.73 Z M 685.83 190.33 C 684.92 189.61 683.69 189.46 682.63 189.94 C 681.58 190.42 680.89 191.45 680.84 192.61 C 680.59 198.53 678.56 229.35 684.29 230.76 C 686.01 231.17 687.25 230.60 687.99 229.04 C 690.45 223.94 690.62 218.83 688.48 213.69 C 687.78 211.92 687.90 210.22 688.85 208.57 C 693.12 201.42 692.12 195.34 685.83 190.33 Z" fill="#422845" fill-rule="nonzero" group-id="1" id="形状" node-id="10" stroke="none" target-height="51.949997" target-width="21.210022" target-x="674.55" target-y="183.83"></path><path d="M 749.38 208.26 C 748.52 211.43 748.17 214.65 748.33 217.94 C 748.46 219.83 748.33 221.70 747.96 223.55 C 747.10 227.87 744.94 231.11 741.49 233.29 C 738.70 235.06 737.67 234.32 738.41 231.07 L 748.46 185.77 C 748.83 184.27 750.18 183.23 751.72 183.25 C 753.25 183.26 754.58 184.33 754.93 185.83 L 764.11 231.13 C 765.06 235.90 763.78 236.58 760.29 233.17 C 757.09 230.04 754.72 226.39 753.20 222.20 C 752.38 219.94 752.75 217.90 754.31 216.09 C 756.78 213.22 756.63 210.26 753.88 207.22 C 751.74 204.83 750.24 205.18 749.38 208.26 Z" fill="#422845" fill-rule="nonzero" group-id="1" id="路径" node-id="11" stroke="none" target-height="53.350006" target-width="27.390015" target-x="737.67" target-y="183.23"></path><path d="M 795.67 224.91 C 795.67 230.69 790.98 235.39 785.19 235.39 L 784.08 235.39 C 778.30 235.39 773.60 230.69 773.60 224.91 L 773.60 194.58 C 773.60 188.79 778.30 184.10 784.08 184.10 L 785.19 184.10 C 790.98 184.10 795.67 188.79 795.67 194.58 L 795.67 224.91 Z M 779.34 194.46 L 779.34 224.78 C 779.34 228.28 781.06 229.96 784.52 229.84 C 788.91 229.67 791.15 227.15 791.23 222.26 C 791.32 220.24 790.97 218.31 790.19 216.46 C 785.99 206.23 799.00 192.85 783.65 190.70 C 780.78 190.33 779.34 191.58 779.34 194.46 Z" fill="#422845" fill-rule="nonzero" group-id="1" id="形状" node-id="12" stroke="none" target-height="51.289993" target-width="25.400024" target-x="773.6" target-y="184.1"></path><path d="M 817.43 229.16 L 826.92 230.83 C 832.84 231.85 832.92 233.19 827.17 234.83 C 821.21 236.56 815.42 236.41 809.79 234.40 C 807.53 233.54 806.40 231.91 806.40 229.53 L 806.58 189.83 C 806.62 187.66 807.61 186.07 809.54 185.09 C 814.60 182.50 819.75 182.58 825.01 185.33 C 830.36 188.17 830.01 189.59 823.97 189.59 L 820.88 189.59 C 818.42 189.59 816.28 190.45 814.47 192.18 C 811.14 195.34 810.90 198.92 813.73 202.90 C 814.72 204.30 816.05 204.96 817.74 204.87 C 819.92 204.79 821.95 205.31 823.84 206.42 C 827.05 208.35 826.78 209.48 823.04 209.81 C 813.79 210.63 810.67 215.97 813.67 225.83 C 814.25 227.72 815.50 228.83 817.43 229.16 Z" fill="#422845" fill-rule="nonzero" group-id="1" id="路径" node-id="13" stroke="none" target-height="54.059998" target-width="26.519958" target-x="806.4" target-y="182.5"></path><path d="M 585.11 230.52 C 587.00 230.68 588.81 230.97 590.53 231.38 C 593.82 232.24 593.90 233.37 590.78 234.77 C 587.12 236.41 583.55 236.43 580.05 234.83 C 577.75 233.72 576.62 231.89 576.66 229.35 L 577.40 188.11 C 577.44 185.48 578.57 184.86 580.79 186.26 C 582.83 187.55 580.79 222.87 581.10 226.57 C 581.31 229.04 582.64 230.35 585.11 230.52 Z" fill="#422845" fill-rule="nonzero" group-id="1" id="路径" node-id="14" stroke="none" target-height="51.569992" target-width="17.28003" target-x="576.62" target-y="184.86"></path><path d="M 615.37 202.90 C 606.13 211.28 617.90 220.96 608.04 232.06 C 607.41 232.78 606.39 232.98 605.53 232.56 C 604.68 232.14 604.21 231.20 604.40 230.27 L 612.78 186.32 C 612.94 185.27 613.79 184.46 614.85 184.35 C 615.90 184.23 616.90 184.84 617.28 185.83 C 623.90 201.24 627.27 217.31 627.39 234.03 C 627.48 242.50 626.35 242.66 624.00 234.52 C 621.09 224.50 619.32 214.41 618.70 204.26 C 618.54 201.46 617.43 201.01 615.37 202.90 Z" fill="#422845" fill-rule="nonzero" group-id="1" id="路径" node-id="15" stroke="none" target-height="58.430008" target-width="23.269958" target-x="604.21" target-y="184.23"></path><path d="M 639.91 232.43 C 635.71 218.68 639.17 201.55 639.04 187.55 C 639.01 185.99 640.03 184.60 641.54 184.16 C 643.04 183.73 644.65 184.36 645.45 185.70 C 649.56 192.40 649.54 199.16 645.39 205.98 C 644.28 207.79 643.71 209.79 643.67 211.96 C 643.60 215.05 644.41 232.67 642.31 233.54 C 641.12 234.03 640.32 233.66 639.91 232.43 Z" fill="#422845" fill-rule="nonzero" group-id="1" id="路径" node-id="16" stroke="none" target-height="50.300003" target-width="13.849976" target-x="635.71" target-y="183.73"></path><path d="M 660.80 214.86 L 663.64 230.83 C 663.89 232.42 663.02 233.99 661.53 234.61 C 660.04 235.24 658.32 234.77 657.35 233.48 C 649.46 222.59 648.99 211.33 655.93 199.70 C 657.12 197.72 657.58 195.57 657.29 193.22 C 656.71 188.87 659.20 185.66 664.75 183.61 C 664.91 183.57 664.93 183.81 664.81 184.35 L 660.80 208.76 C 660.47 210.77 660.47 212.81 660.80 214.86 Z" fill="#422845" fill-rule="nonzero" group-id="1" id="路径" node-id="17" stroke="none" target-height="51.67" target-width="15.940002" target-x="648.99" target-y="183.57"></path><path d="M 718.25 229.72 C 727.07 227.93 723.06 195.69 724.66 187.31 C 725.90 180.69 727.29 180.65 728.85 187.18 C 731.69 198.83 735.88 242.60 713.07 234.65 C 711.27 234.03 710.05 232.82 709.44 231.01 C 704.55 216.42 704.07 201.75 708.02 187.00 C 711.14 175.49 712.75 175.70 712.83 187.61 L 713.14 225.59 C 713.18 229.04 714.88 230.41 718.25 229.72 Z" fill="#422845" fill-rule="nonzero" group-id="1" id="路径" node-id="18" stroke="none" target-height="67.11" target-width="31.809998" target-x="704.07" target-y="175.49"></path><path d="M 685.83 190.33 C 692.12 195.34 693.12 201.42 688.85 208.57 C 687.90 210.22 687.78 211.92 688.48 213.69 C 690.62 218.83 690.45 223.94 687.99 229.04 C 687.25 230.60 686.01 231.17 684.29 230.76 C 678.56 229.35 680.59 198.53 680.84 192.61 C 680.89 191.45 681.58 190.42 682.63 189.94 C 683.69 189.46 684.92 189.61 685.83 190.33 L 685.83 190.33 Z" fill="#f7ede5" fill-rule="nonzero" group-id="1" id="路径" node-id="19" stroke="none" target-height="41.70999" target-width="14.559998" target-x="678.56" target-y="189.46"></path><path d="M 779.34 194.46 C 779.34 191.58 780.78 190.33 783.65 190.70 C 799.00 192.85 785.99 206.23 790.19 216.46 C 790.97 218.31 791.32 220.24 791.23 222.26 C 791.15 227.15 788.91 229.67 784.52 229.84 C 781.06 229.96 779.34 228.28 779.34 224.78 L 779.34 194.46 Z" fill="#f7ede5" fill-rule="nonzero" group-id="1" id="路径" node-id="20" stroke="none" target-height="39.630005" target-width="19.659973" target-x="779.34" target-y="190.33"></path><path d="M 338.42 252.52 L 287.63 263.31 C 303.49 253.94 320.42 250.34 338.42 252.52 Z" fill="#f7ede5" fill-rule="nonzero" group-id="1" id="路径" node-id="21" stroke="none" target-height="12.970001" target-width="50.79001" target-x="287.63" target-y="250.34"></path><path d="M 427.86 259.18 C 403.37 286.71 402.86 314.72 426.32 343.20 C 427.84 345.05 428.01 347.00 426.82 349.05 C 407.34 382.34 379.66 407.55 413.56 443.18 C 415.04 444.74 416.85 445.64 418.99 445.89 L 452.77 450.02 C 460.94 450.98 466.96 458.16 466.51 466.42 C 465.34 490.27 458.31 516.34 481.43 533.42 C 491.41 540.82 498.13 539.09 501.59 528.24 C 509.97 502.11 497.52 441.27 543.99 436.83 C 546.17 436.62 548.16 437.09 549.97 438.25 L 584.80 460.81 C 586.07 549.98 549.09 617.27 473.85 662.68 L 462.50 666.75 C 459.92 667.69 458.64 666.77 458.68 663.97 C 459.24 638.70 458.38 624.83 428.42 623.54 C 425.29 623.41 422.46 621.64 420.99 618.87 C 419.51 616.10 419.62 612.77 421.27 610.10 C 435.88 586.43 430.45 554.68 407.58 539.03 C 382.68 521.95 341.81 547.35 332.14 570.16 C 326.67 583.06 320.42 592.59 313.40 598.76 C 311.42 600.48 309.31 600.69 307.05 599.37 C 298.23 594.38 292.50 583.35 283.99 580.82 C 263.59 574.84 224.14 610.53 210.33 627.24 L 198.25 616.20 L 173.35 579.46 C 184.69 565.23 217.61 552.22 203.49 526.88 C 202.46 525.08 202.07 523.17 202.32 521.15 C 207.74 470.11 261.62 500.13 289.17 495.57 C 317.90 490.70 342.68 447.92 315.12 427.03 C 305.63 419.82 293.24 422.10 281.84 422.34 C 278.35 422.40 275.11 420.55 273.40 417.51 C 271.69 414.48 271.78 410.75 273.64 407.80 L 286.64 387.27 C 287.88 385.30 288.31 383.14 287.94 380.80 C 284.73 360.76 259.28 361.81 244.05 361.87 C 241.39 361.88 238.88 360.66 237.25 358.56 C 235.62 356.46 235.06 353.72 235.73 351.15 C 240.58 332.41 235.71 316.57 221.12 303.62 C 240.89 286.40 263.06 272.97 287.63 263.31 L 338.42 252.52 C 368.83 248.62 398.65 250.84 427.86 259.18 Z" fill="#6e72ff" fill-rule="nonzero" group-id="1" id="路径" node-id="22" stroke="none" target-height="419.07" target-width="412.72" target-x="173.35" target-y="248.62"></path><path d="M 667.64 294.19 L 664.93 296.90 C 659.55 302.29 657.23 301.20 657.97 293.64 C 659.20 280.65 661.67 267.85 665.36 255.23 C 665.87 253.34 667.61 252.04 669.57 252.09 C 671.53 252.13 673.20 253.51 673.62 255.42 C 675.23 262.32 684.60 301.53 680.28 304.67 C 679.50 305.25 678.86 305.10 678.37 304.24 L 673.44 295.05 C 671.88 292.18 669.95 291.89 667.64 294.19 Z M 670.23 288.74 C 671.44 288.65 672.53 287.72 673.27 286.16 C 674.01 284.59 674.33 282.52 674.17 280.40 C 673.83 275.99 671.51 272.57 669.00 272.76 C 667.80 272.86 666.70 273.79 665.97 275.35 C 665.23 276.92 664.91 278.98 665.07 281.10 C 665.41 285.52 667.72 288.94 670.23 288.74 L 670.23 288.74 Z" fill="#a26064" fill-rule="nonzero" group-id="1" id="形状" node-id="23" stroke="none" target-height="53.210007" target-width="27.369995" target-x="657.23" target-y="252.04"></path><path d="M 732.12 299.00 C 732.61 299.99 733.71 300.52 734.79 300.29 C 735.87 300.06 736.65 299.12 736.68 298.01 L 736.81 288.21 C 736.85 285.99 735.90 284.35 733.97 283.28 C 723.08 277.16 719.90 268.71 724.42 257.95 C 726.02 254.09 730.18 252.01 734.15 253.08 C 741.18 254.97 744.14 258.99 743.03 265.16 C 742.41 268.65 741.12 268.92 739.15 265.96 L 735.08 259.86 C 732.90 256.61 731.22 256.86 730.03 260.60 L 728.24 266.39 C 727.58 268.45 728.13 270.09 729.90 271.32 C 762.26 294.07 726.76 320.45 721.21 293.27 C 720.27 288.71 721.64 287.84 725.34 290.68 C 728.30 292.94 730.56 295.71 732.12 299.00 Z" fill="#422845" fill-rule="nonzero" group-id="1" id="路径" node-id="24" stroke="none" target-height="68.44002" target-width="42.359985" target-x="719.9" target-y="252.01"></path><path d="M 775.08 302.02 C 764.85 310.03 750.55 301.90 752.83 288.03 C 754.19 279.46 747.96 240.63 772.62 254.06 C 775.74 255.75 775.60 257.04 772.19 257.95 L 762.82 260.47 C 759.94 261.25 758.69 263.12 759.06 266.08 L 759.86 271.82 C 760.27 274.73 761.83 275.66 764.54 274.59 C 767.26 273.56 769.19 274.86 770.34 278.47 C 771.12 280.86 770.26 282.05 767.75 282.05 L 765.28 282.05 C 763.02 282.05 761.54 283.12 760.85 285.25 L 758.93 291.48 C 757.91 294.81 759.10 296.78 762.51 297.40 L 774.47 299.55 C 776.52 299.92 776.73 300.75 775.08 302.02 Z" fill="#422845" fill-rule="nonzero" group-id="1" id="路径" node-id="25" stroke="none" target-height="69.399994" target-width="28.769958" target-x="747.96" target-y="240.63"></path><path d="M 790.49 261.71 C 786.61 275.21 811.21 279.58 806.21 297.46 C 802.76 309.79 783.16 304.18 783.16 292.53 C 783.12 288.58 784.41 288.07 787.04 290.99 C 789.88 294.19 793.12 296.84 796.78 298.94 C 802.00 301.94 803.58 300.60 801.53 294.93 C 798.65 286.96 793.80 280.36 786.98 275.14 C 785.42 273.95 784.43 272.39 784.02 270.46 C 782.26 261.95 784.89 256.39 791.91 253.76 C 797.99 251.45 802.62 253.14 805.78 258.81 C 807.01 260.99 807.32 262.84 806.71 264.36 C 805.84 266.54 804.49 266.91 802.64 265.47 L 795.55 259.98 C 793.04 258.05 791.36 258.62 790.49 261.71 Z" fill="#422845" fill-rule="nonzero" group-id="1" id="路径" node-id="26" stroke="none" target-height="58.34001" target-width="28.950012" target-x="782.26" target-y="251.45"></path><path d="M 606.81 258.87 C 606.23 258.91 605.65 258.93 605.08 258.93 C 604.05 258.89 603.48 259.39 603.35 260.41 C 602.06 268.61 600.21 296.23 604.03 298.75 C 605.63 299.78 607.09 299.64 608.41 298.32 C 611.28 295.36 612.85 291.99 613.09 288.21 C 613.59 279.91 614.90 279.79 617.04 287.84 C 621.91 306.03 596.88 311.70 595.96 290.62 C 595.53 280.32 591.89 245.56 612.23 254.86 C 617.41 257.21 618.85 261.42 616.54 267.50 C 615.56 270.05 614.45 270.09 613.22 267.62 L 609.76 260.60 C 609.15 259.36 608.16 258.79 606.81 258.87 Z" fill="#422845" fill-rule="nonzero" group-id="1" id="路径" node-id="27" stroke="none" target-height="66.140015" target-width="30.019958" target-x="591.89" target-y="245.56"></path><path d="M 639.04 298.75 L 647.73 299.68 C 653.53 300.25 653.69 301.53 648.23 303.50 C 642.15 305.72 636.45 305.35 631.15 302.39 C 629.18 301.32 628.19 299.66 628.19 297.40 L 628.19 257.89 C 628.19 256.28 628.93 255.17 630.41 254.56 C 631.24 254.19 632.14 254.13 633.13 254.37 C 634.15 254.62 634.69 255.28 634.73 256.34 L 636.33 295.92 C 636.41 297.64 637.32 298.59 639.04 298.75 Z" fill="#422845" fill-rule="nonzero" group-id="1" id="路径" node-id="28" stroke="none" target-height="51.589996" target-width="25.5" target-x="628.19" target-y="254.13"></path><path d="M 691.01 296.29 C 690.02 296.57 689.18 296.16 688.48 295.05 C 687.41 293.29 687.86 292.16 689.84 291.66 C 694.44 290.55 697.48 292.12 698.96 296.35 C 699.86 298.94 701.46 299.51 703.77 298.07 C 706.56 296.31 707.49 293.72 706.54 290.31 C 706.01 288.34 704.94 286.71 703.33 285.44 C 697.62 280.84 693.27 275.23 690.27 268.61 C 689.49 266.80 689.47 264.97 690.21 263.12 C 696.99 246.79 718.19 255.23 710.67 265.71 C 708.74 268.43 707.57 268.12 707.16 264.79 C 706.91 262.49 705.55 260.91 703.09 260.04 C 700.01 258.89 698.30 259.96 697.97 263.25 L 697.48 268.06 C 697.23 270.44 698.18 272.21 700.31 273.36 C 711.29 279.19 714.88 288.01 711.10 299.80 C 710.44 301.86 709.09 303.23 707.03 303.93 C 699.60 306.52 694.25 303.97 691.01 296.29 Z" fill="#422845" fill-rule="nonzero" group-id="1" id="路径" node-id="29" stroke="none" target-height="59.729996" target-width="30.78003" target-x="687.41" target-y="246.79"></path><path d="M 427.86 259.18 C 467.03 271.71 500.93 292.77 529.57 322.36 L 552.69 348.56 L 551.88 350.35 C 551.43 351.25 551.47 352.13 552.01 353.00 C 571.86 386.20 582.79 422.14 584.80 460.81 L 549.97 438.25 C 548.16 437.09 546.17 436.62 543.99 436.83 C 497.52 441.27 509.97 502.11 501.59 528.24 C 498.13 539.09 491.41 540.82 481.43 533.42 C 458.31 516.34 465.34 490.27 466.51 466.42 C 466.96 458.16 460.94 450.98 452.77 450.02 L 418.99 445.89 C 416.85 445.64 415.04 444.74 413.56 443.18 C 379.66 407.55 407.34 382.34 426.82 349.05 C 428.01 347.00 427.84 345.05 426.32 343.20 C 402.86 314.72 403.37 286.71 427.86 259.18 Z" fill="#b5e1e8" fill-rule="nonzero" group-id="1" id="路径" node-id="30" stroke="none" target-height="281.64" target-width="205.13998" target-x="379.66" target-y="259.18"></path><path d="M 670.23 288.74 L 669.05 288.56 L 667.93 287.90 L 666.84 286.65 L 666.02 285.15 L 665.43 283.32 L 665.07 281.10 L 665.08 278.86 L 665.39 276.96 L 665.97 275.35 L 666.86 273.95 L 667.86 273.13 L 669.00 272.76 L 670.19 272.95 L 671.30 273.61 L 672.40 274.86 L 673.21 276.36 L 673.81 278.18 L 674.17 280.40 L 674.15 282.65 L 673.84 284.55 L 673.27 286.16 L 672.38 287.56 L 671.38 288.38 L 670.23 288.74 Z" fill="#ebecee" fill-rule="nonzero" group-id="1,3" id="椭圆形" node-id="31" stroke="none" target-height="15.97998" target-width="9.099976" target-x="665.07" target-y="272.76"></path><path d="M 221.12 303.62 C 235.71 316.57 240.58 332.41 235.73 351.15 C 235.06 353.72 235.62 356.46 237.25 358.56 C 238.88 360.66 241.39 361.88 244.05 361.87 C 259.28 361.81 284.73 360.76 287.94 380.80 C 288.31 383.14 287.88 385.30 286.64 387.27 L 273.64 407.80 C 271.78 410.75 271.69 414.48 273.40 417.51 C 275.11 420.55 278.35 422.40 281.84 422.34 C 293.24 422.10 305.63 419.82 315.12 427.03 C 342.68 447.92 317.90 490.70 289.17 495.57 C 261.62 500.13 207.74 470.11 202.32 521.15 C 202.07 523.17 202.46 525.08 203.49 526.88 C 217.61 552.22 184.69 565.23 173.35 579.46 C 117.38 488.73 145.61 371.24 221.12 303.62 Z" fill="#b5e1e8" fill-rule="nonzero" group-id="1" id="路径" node-id="32" stroke="none" target-height="275.84003" target-width="225.29999" target-x="117.38" target-y="303.62"></path><path d="M 544.73 314.41 L 568.96 346.40 C 563.12 348.54 557.70 349.26 552.69 348.56 L 529.57 322.36 C 536.56 323.92 541.61 321.27 544.73 314.41 Z" fill="#422845" fill-rule="nonzero" group-id="1" id="路径" node-id="33" stroke="none" target-height="34.850006" target-width="39.390015" target-x="529.57" target-y="314.41"></path><path d="M 1059.43 322.11 L 1132.11 323.41 L 1197.69 323.84 C 1199.62 323.88 1200.34 324.81 1199.85 326.61 L 1193.50 349.85 C 1187.17 359.39 1184.69 369.74 1186.04 380.92 L 1173.47 425.36 L 1059.43 819.86 L 871.68 927.49 L 817.55 929.15 C 815.01 929.23 813.69 930.55 813.61 933.10 L 812.87 957.01 C 802.23 955.25 791.52 954.34 780.76 954.30 C 531.32 953.36 281.88 953.77 32.44 955.53 C 22.64 955.59 10.62 953.62 0.76 952.39 C 28.86 937.14 57.59 923.15 86.93 910.41 C 88.86 909.55 92.15 907.10 96.79 903.08 L 130.69 886.13 L 266.67 819.18 C 268.60 818.24 269.90 816.74 270.56 814.68 L 312.53 685.79 C 320.01 685.79 326.24 687.27 331.21 690.23 L 296.26 799.58 C 295.52 801.92 296.38 803.10 298.85 803.10 L 426.32 802.66 C 428.91 810.97 428.83 819.27 426.08 827.57 C 381.16 825.84 336.22 825.62 291.27 826.89 C 281.69 827.14 272.59 829.48 263.96 833.92 C 198.95 867.49 145.57 894.51 103.82 914.97 C 95.27 919.17 87.77 923.58 81.32 928.23 C 78.61 930.16 78.90 931.37 82.18 931.86 C 92.37 933.34 104.87 934.00 119.66 933.84 C 342.59 931.29 565.53 928.84 788.46 926.50 C 796.88 926.42 803.75 925.02 809.05 922.31 C 865.39 893.34 921.75 864.39 978.13 835.46 C 983.51 832.66 982.38 829.77 974.74 826.77 C 973.92 826.48 973.07 826.33 972.21 826.33 L 566.55 826.27 C 564.17 818.38 564.05 810.80 566.18 803.53 L 1028.92 801.37 C 1031.18 801.37 1032.66 800.30 1033.36 798.16 L 1042.48 770.55 L 1051.73 736.65 L 1063.01 695.04 L 1095.37 611.83 C 1099.97 599.95 1101.35 587.62 1099.50 574.84 L 1102.58 560.97 L 1120.03 502.41 C 1124.13 495.80 1126.02 488.61 1125.70 480.84 L 1162.31 351.64 C 1162.97 349.38 1162.10 348.23 1159.72 348.19 L 839.13 347.45 L 857.81 323.41 L 1059.43 322.11 Z" fill="#422845" fill-rule="nonzero" group-id="1" id="路径" node-id="34" stroke="none" target-height="634.9" target-width="1199.58" target-x="0.76" target-y="322.11"></path><path d="M 568.96 346.40 C 608.57 385.32 656.16 404.47 711.72 403.85 C 736.56 403.54 761.83 418.52 784.21 428.01 C 786.75 429.12 787.70 428.32 787.04 425.61 C 785.56 419.26 768.30 407.36 761.15 398.36 C 760.00 396.93 760.29 395.90 762.02 395.28 C 791.89 385.05 817.60 369.11 839.13 347.45 L 1159.72 348.19 C 1162.10 348.23 1162.97 349.38 1162.31 351.64 L 1125.70 480.84 C 1121.01 487.29 1119.12 494.48 1120.03 502.41 L 1102.58 560.97 C 1098.10 562.08 1095.59 561.05 1095.06 557.89 C 1067.20 389.80 818.60 374.39 757.02 526.51 C 721.58 614.17 777.86 699.97 864.03 728.94 C 867.03 729.93 867.38 731.51 865.08 733.69 L 840.05 756.93 C 839.48 757.46 839.25 758.14 839.38 758.96 L 839.62 761.00 C 839.79 762.27 840.46 762.68 841.66 762.23 C 857.23 756.19 872.68 749.76 888.01 742.93 C 912.42 732.02 940.40 739.11 964.81 733.13 C 994.48 725.90 1021.22 712.36 1045.01 692.51 C 1049.88 688.38 1053.82 680.99 1059.56 676.42 C 1062.84 673.79 1064.34 674.60 1064.06 678.83 L 1063.01 695.04 L 1051.73 736.65 C 1044.99 746.96 1041.91 758.26 1042.48 770.55 L 1033.36 798.16 C 1032.66 800.30 1031.18 801.37 1028.92 801.37 L 566.18 803.53 L 565.81 775.05 C 565.73 769.79 568.34 767.12 573.64 767.04 L 700.38 765.93 L 700.93 633.83 C 700.93 631.49 699.76 630.32 697.42 630.32 L 569.33 630.32 C 566.49 630.32 565.20 631.74 565.44 634.57 L 566.31 644.19 C 562.40 653.68 562.05 663.44 565.26 673.47 L 564.77 762.84 C 545.66 772.21 491.23 766.24 470.15 767.16 C 459.05 767.59 444.63 763.83 430.58 768.08 C 428.68 768.66 427.70 769.93 427.62 771.91 L 426.32 802.66 L 298.85 803.10 C 296.38 803.10 295.52 801.92 296.26 799.58 L 331.21 690.23 C 381.67 695.57 429.22 686.39 473.85 662.68 C 549.09 617.27 586.07 549.98 584.80 460.81 C 582.79 422.14 571.86 386.20 552.01 353.00 C 551.47 352.13 551.43 351.25 551.88 350.35 L 552.69 348.56 C 557.70 349.26 563.12 348.54 568.96 346.40 Z" fill="#ffffff" fill-rule="nonzero" group-id="1" id="路径" node-id="35" stroke="none" target-height="457.13004" target-width="867.44995" target-x="295.52" target-y="346.4"></path><path d="M 1193.50 349.85 C 1194.40 361.03 1191.92 371.39 1186.04 380.92 C 1184.69 369.74 1187.17 359.39 1193.50 349.85 Z" fill="#a26064" fill-rule="nonzero" group-id="1" id="路径" node-id="36" stroke="none" target-height="31.070007" target-width="9.710083" target-x="1184.69" target-y="349.85"></path><path d="M 1102.58 560.97 L 1099.50 574.84 C 1095.06 586.76 1093.68 599.09 1095.37 611.83 L 1063.01 695.04 L 1064.06 678.83 C 1064.34 674.60 1062.84 673.79 1059.56 676.42 C 1053.82 680.99 1049.88 688.38 1045.01 692.51 C 1021.22 712.36 994.48 725.90 964.81 733.13 C 940.40 739.11 912.42 732.02 888.01 742.93 C 872.68 749.76 857.23 756.19 841.66 762.23 C 840.46 762.68 839.79 762.27 839.62 761.00 L 839.38 758.96 C 839.25 758.14 839.48 757.46 840.05 756.93 L 865.08 733.69 C 867.38 731.51 867.03 729.93 864.03 728.94 C 777.86 699.97 721.58 614.17 757.02 526.51 C 818.60 374.39 1067.20 389.80 1095.06 557.89 C 1095.59 561.05 1098.10 562.08 1102.58 560.97 Z M 883.26 529.17 L 882.34 524.42 C 881.85 522.04 882.81 520.60 885.24 520.10 C 889.18 519.36 892.67 518.07 895.71 516.22 C 900.69 513.18 900.26 511.66 894.42 511.66 L 880.92 511.66 C 877.84 511.66 876.30 513.20 876.30 516.28 L 876.30 559.92 C 876.30 564.20 877.82 564.81 880.86 561.77 L 881.97 560.73 C 883.24 559.45 883.78 557.91 883.57 556.10 L 882.15 544.27 C 881.74 540.90 883.14 539.71 886.35 540.69 C 889.72 541.72 892.16 540.73 893.68 537.73 C 895.08 534.98 894.24 533.50 891.15 533.30 L 887.58 532.99 C 885.15 532.82 883.72 531.55 883.26 529.17 Z M 929.85 522.46 C 929.89 519.68 928.83 517.00 926.89 515.00 C 924.96 513.01 922.31 511.86 919.53 511.82 L 915.34 511.75 C 912.56 511.71 909.88 512.77 907.89 514.71 C 905.89 516.64 904.74 519.29 904.70 522.07 L 904.24 551.53 C 904.19 554.31 905.26 556.99 907.19 558.98 C 909.12 560.98 911.77 562.13 914.55 562.17 L 918.74 562.23 C 921.52 562.28 924.20 561.22 926.20 559.28 C 928.19 557.35 929.34 554.70 929.38 551.92 L 929.85 522.46 Z M 953.90 543.59 L 958.90 563.44 C 960.75 570.79 962.16 570.71 963.15 563.19 C 964.26 554.68 963.40 546.40 960.56 538.35 C 959.99 536.67 960.03 535.00 960.68 533.36 C 963.15 527.23 963.07 521.21 960.44 515.30 C 959.53 513.20 957.93 512.11 955.63 512.03 L 943.49 511.54 C 940.77 511.41 939.44 512.69 939.48 515.36 L 939.54 558.51 C 939.50 559.72 940.10 560.86 941.13 561.50 C 942.16 562.15 943.45 562.19 944.52 561.63 C 945.59 561.06 946.28 559.96 946.32 558.75 L 947.62 542.17 C 947.70 541.35 948.13 540.94 948.91 540.94 C 949.49 540.94 950.06 540.94 950.64 540.94 C 952.40 540.98 953.49 541.86 953.90 543.59 Z M 808.93 606.52 C 812.17 602.58 810.59 597.55 804.18 591.42 C 802.00 589.33 802.41 588.16 805.41 587.91 C 808.33 587.66 811.16 587.23 813.92 586.61 C 818.73 585.59 818.95 583.92 814.60 581.62 C 809.29 578.83 803.97 578.48 798.63 580.57 C 796.99 581.19 796.17 582.38 796.17 584.15 L 796.17 626.56 C 796.17 629.15 797.46 630.54 800.05 630.75 L 814.16 631.80 C 818.48 632.08 819.34 630.50 816.75 627.05 C 814.70 624.34 812.03 623.37 808.74 624.15 C 806.40 624.73 804.90 623.87 804.24 621.56 C 802.27 614.60 804.06 612.44 808.93 606.52 Z M 901.26 610.22 C 901.88 610.18 902.47 610.24 903.05 610.41 C 905.39 611.19 906.34 612.79 905.89 615.22 C 904.82 620.93 905.93 626.13 909.21 630.81 C 913.20 636.44 914.76 635.84 913.90 629.02 C 912.30 616.53 911.45 604.12 911.37 591.79 C 911.29 583.33 906.26 579.20 896.27 579.40 C 892.16 579.48 890.13 581.58 890.17 585.69 L 890.23 628.35 C 890.25 629.82 891.38 631.05 892.85 631.19 C 894.32 631.33 895.66 630.35 895.96 628.90 L 899.17 612.13 C 899.41 611.02 900.11 610.39 901.26 610.22 Z M 977.83 591.13 C 977.82 588.04 976.58 585.08 974.39 582.91 C 972.20 580.73 969.23 579.51 966.14 579.52 L 964.91 579.53 C 961.82 579.54 958.86 580.78 956.68 582.97 C 954.50 585.16 953.29 588.13 953.30 591.22 L 953.40 620.07 C 953.41 623.16 954.65 626.11 956.84 628.29 C 959.03 630.47 962.00 631.69 965.09 631.68 L 966.32 631.67 C 969.41 631.66 972.37 630.42 974.55 628.23 C 976.73 626.04 977.94 623.07 977.93 619.98 L 977.83 591.13 Z M 1033.42 587.23 L 1042.11 586.98 C 1048.69 586.82 1049.06 585.24 1043.22 582.24 C 1037.67 579.40 1032.06 578.81 1026.39 580.45 C 1023.93 581.19 1022.69 582.83 1022.69 585.38 L 1022.69 626.93 C 1022.69 629.85 1024.15 631.28 1027.07 631.24 L 1041.74 630.93 C 1045.65 630.85 1046.41 629.29 1044.02 626.25 C 1042.54 624.32 1040.61 623.62 1038.23 624.15 C 1036.09 624.65 1034.24 624.11 1032.68 622.55 L 1029.17 619.04 C 1026.58 616.49 1026.85 614.29 1029.97 612.44 L 1040.02 606.52 C 1041.74 605.50 1041.93 604.22 1040.57 602.70 C 1039.05 600.98 1037.12 600.46 1034.78 601.16 C 1031.86 602.07 1030.40 601.00 1030.40 597.96 L 1030.40 590.31 C 1030.40 588.30 1031.41 587.27 1033.42 587.23 Z M 835.06 611.52 C 834.69 606.65 834.69 579.90 828.03 581.50 C 825.40 582.11 824.34 583.78 824.83 586.49 L 832.35 628.84 C 832.73 631.43 834.94 633.35 837.56 633.36 C 840.18 633.38 842.41 631.48 842.83 628.90 L 851.09 584.83 C 851.50 582.73 850.66 581.46 848.56 581.01 C 843.75 580.02 839.81 607.33 838.76 611.76 C 838.69 612.79 837.81 613.56 836.79 613.49 C 835.77 613.42 834.99 612.54 835.06 611.52 L 835.06 611.52 Z M 865.39 620.15 L 866.31 611.15 C 866.60 608.52 868.06 607.20 870.69 607.20 L 878.21 607.20 C 884.87 607.20 885.15 605.87 879.07 603.20 C 875.70 601.72 872.21 600.96 868.59 600.92 C 866.21 600.87 865.14 599.66 865.39 597.28 L 866.07 590.37 C 866.35 587.46 867.92 586.33 870.75 586.98 C 874.49 587.85 878.02 587.31 881.35 585.38 C 885.79 582.87 885.46 581.54 880.37 581.37 L 862.80 580.88 C 860.54 580.80 859.41 581.89 859.41 584.15 L 859.35 625.69 C 859.35 627.95 860.44 629.35 862.61 629.89 C 868.45 631.32 874.26 631.71 880.06 631.06 C 884.58 630.52 884.93 629.02 881.11 626.56 C 877.57 624.26 873.85 623.50 869.95 624.28 C 866.54 624.98 865.02 623.60 865.39 620.15 Z M 930.23 591.85 C 930.73 587.79 929.60 584.31 926.84 581.44 C 925.98 580.49 924.99 580.35 923.88 581.01 L 921.79 582.24 C 920.56 582.98 920.25 584.03 920.86 585.38 C 927.40 599.07 930.01 613.43 928.69 628.47 C 928.60 629.64 929.13 630.78 930.09 631.48 C 931.04 632.17 932.29 632.31 933.38 631.86 C 936.58 630.56 941.39 594.87 946.88 585.57 C 947.74 584.09 947.43 582.90 945.95 581.99 L 944.60 581.19 C 943.20 580.37 942.11 580.68 941.33 582.11 L 934.80 594.63 C 930.56 602.76 929.04 601.84 930.23 591.85 Z M 988.36 583.96 L 988.98 629.02 C 989.06 637.12 990.44 637.32 993.11 629.64 C 998.33 614.48 999.52 599.00 996.68 583.22 C 996.31 581.08 994.35 579.57 992.18 579.76 C 990.01 579.96 988.35 581.78 988.36 583.96 Z M 1007.53 582.05 L 1001.24 622.49 C 1000.91 624.63 1001.61 626.33 1003.34 627.61 L 1006.79 630.13 C 1009.91 632.43 1011.54 631.63 1011.66 627.73 L 1012.96 582.55 C 1013.04 581.58 1012.61 580.63 1011.81 580.07 C 1011.02 579.51 1009.98 579.42 1009.10 579.83 C 1008.22 580.24 1007.62 581.08 1007.53 582.05 L 1007.53 582.05 Z" fill="#f7ede5" fill-rule="nonzero" group-id="1" id="形状" node-id="37" stroke="none" target-height="388.28998" target-width="380.99994" target-x="721.58" target-y="374.39"></path><path d="M 1173.47 425.36 L 1186.29 485.46 C 1185.18 497.09 1186.56 508.39 1190.42 519.36 C 1195.47 555.73 1196.50 592.20 1193.50 628.78 L 1181.67 718.16 C 1108.81 1046.39 781.93 1250.61 457.02 1165.73 C 338.42 1134.74 238.07 1073.94 155.97 983.33 C 155.27 982.55 154.96 981.65 155.04 980.62 C 155.12 979.96 155.14 979.37 155.10 978.83 L 182.84 978.83 C 291.27 1091.20 469.35 1099.65 575.80 978.83 L 812.87 978.59 L 813.05 1062.66 C 813.05 1064.81 814.77 1066.55 816.88 1066.55 L 947.49 1066.18 C 949.03 1066.14 950.27 1064.91 950.27 1063.40 L 950.27 933.16 C 950.27 931.14 949.26 930.03 947.25 929.83 L 914.21 926.07 C 956.04 902.32 997.46 878.34 1038.47 854.13 C 1048.42 848.30 1055.41 836.88 1059.43 819.86 L 1173.47 425.36 Z" fill="#febf63" fill-rule="nonzero" group-id="1" id="路径" node-id="38" stroke="none" target-height="825.25" target-width="1041.54" target-x="154.96" target-y="425.36"></path><path d="M 1125.70 480.84 C 1126.02 488.61 1124.13 495.80 1120.03 502.41 C 1119.12 494.48 1121.01 487.29 1125.70 480.84 Z" fill="#a26064" fill-rule="nonzero" group-id="1" id="路径" node-id="39" stroke="none" target-height="21.570007" target-width="6.9000244" target-x="1119.12" target-y="480.84"></path><path d="M 1186.29 485.46 C 1190.52 496.31 1191.90 507.61 1190.42 519.36 C 1186.56 508.39 1185.18 497.09 1186.29 485.46 Z" fill="#f7ede5" fill-rule="nonzero" group-id="1" id="路径" node-id="40" stroke="none" target-height="33.899994" target-width="6.7199707" target-x="1185.18" target-y="485.46"></path><path d="M 887.58 532.99 L 891.15 533.30 C 894.24 533.50 895.08 534.98 893.68 537.73 C 892.16 540.73 889.72 541.72 886.35 540.69 C 883.14 539.71 881.74 540.90 882.15 544.27 L 883.57 556.10 C 883.78 557.91 883.24 559.45 881.97 560.73 L 880.86 561.77 C 877.82 564.81 876.30 564.20 876.30 559.92 L 876.30 516.28 C 876.30 513.20 877.84 511.66 880.92 511.66 L 894.42 511.66 C 900.26 511.66 900.69 513.18 895.71 516.22 C 892.67 518.07 889.18 519.36 885.24 520.10 C 882.81 520.60 881.85 522.04 882.34 524.42 L 883.26 529.17 C 883.72 531.55 885.15 532.82 887.58 532.99 Z" fill="#a26064" fill-rule="nonzero" group-id="1" id="路径" node-id="41" stroke="none" target-height="53.149994" target-width="24.390015" target-x="876.3" target-y="511.66"></path><path d="M 929.38 551.92 C 929.34 554.70 928.19 557.35 926.20 559.28 C 924.20 561.22 921.52 562.28 918.74 562.23 L 914.55 562.17 C 911.77 562.13 909.12 560.98 907.19 558.98 C 905.26 556.99 904.19 554.31 904.24 551.53 L 904.70 522.07 C 904.74 519.29 905.89 516.64 907.89 514.71 C 909.88 512.77 912.56 511.71 915.34 511.75 L 919.53 511.82 C 922.31 511.86 924.96 513.01 926.89 515.00 C 928.83 517.00 929.89 519.68 929.85 522.46 L 929.38 551.92 Z M 914.70 553.51 C 915.44 555.32 917.37 556.34 919.28 555.95 C 921.19 555.56 922.55 553.86 922.53 551.91 L 922.53 522.26 C 922.59 520.17 921.11 518.35 919.06 517.96 C 917.00 517.58 914.97 518.75 914.27 520.72 C 909.87 531.82 910.02 542.75 914.70 553.51 Z" fill="#a26064" fill-rule="nonzero" group-id="1" id="形状" node-id="42" stroke="none" target-height="50.570038" target-width="25.700012" target-x="904.19" target-y="511.71"></path><path d="M 950.64 540.94 C 950.06 540.94 949.49 540.94 948.91 540.94 C 948.13 540.94 947.70 541.35 947.62 542.17 L 946.32 558.75 C 946.28 559.96 945.59 561.06 944.52 561.63 C 943.45 562.19 942.16 562.15 941.13 561.50 C 940.10 560.86 939.50 559.72 939.54 558.51 L 939.48 515.36 C 939.44 512.69 940.77 511.41 943.49 511.54 L 955.63 512.03 C 957.93 512.11 959.53 513.20 960.44 515.30 C 963.07 521.21 963.15 527.23 960.68 533.36 C 960.03 535.00 959.99 536.67 960.56 538.35 C 963.40 546.40 964.26 554.68 963.15 563.19 C 962.16 570.71 960.75 570.79 958.90 563.44 L 953.90 543.59 C 953.49 541.86 952.40 540.98 950.64 540.94 Z M 950.38 533.47 C 951.80 533.55 953.21 532.82 954.30 531.45 C 955.38 530.08 956.06 528.17 956.18 526.15 C 956.29 524.12 955.84 522.15 954.92 520.66 C 954.00 519.17 952.68 518.29 951.26 518.21 C 949.84 518.12 948.43 518.85 947.35 520.22 C 946.26 521.60 945.58 523.50 945.47 525.53 C 945.35 527.55 945.80 529.53 946.72 531.01 C 947.65 532.50 948.96 533.39 950.38 533.47 L 950.38 533.47 Z" fill="#a26064" fill-rule="nonzero" group-id="1" id="形状" node-id="43" stroke="none" target-height="59.379974" target-width="24.820007" target-x="939.44" target-y="511.41"></path><path d="M 914.70 553.51 C 910.02 542.75 909.87 531.82 914.27 520.72 C 914.97 518.75 917.00 517.58 919.06 517.96 C 921.11 518.35 922.59 520.17 922.53 522.26 L 922.53 551.91 C 922.55 553.86 921.19 555.56 919.28 555.95 C 917.37 556.34 915.44 555.32 914.70 553.51 L 914.70 553.51 Z" fill="#f7ede5" fill-rule="nonzero" group-id="1" id="路径" node-id="44" stroke="none" target-height="38.76001" target-width="12.720032" target-x="909.87" target-y="517.58"></path><path d="M 950.38 533.47 L 948.99 533.11 L 947.79 532.32 L 946.72 531.01 L 945.99 529.46 L 945.56 527.66 L 945.47 525.53 L 945.80 523.42 L 946.44 521.68 L 947.35 520.22 L 948.55 519.05 L 949.84 518.40 L 951.26 518.21 L 952.65 518.56 L 953.86 519.36 L 954.92 520.66 L 955.66 522.21 L 956.08 524.02 L 956.18 526.15 L 955.84 528.25 L 955.21 530.00 L 954.30 531.45 L 953.09 532.62 L 951.81 533.27 L 950.38 533.47 Z" fill="#f7ede5" fill-rule="nonzero" group-id="1,4" id="椭圆形" node-id="45" stroke="none" target-height="15.259949" target-width="10.710022" target-x="945.47" target-y="518.21"></path><path d="M 473.85 662.68 C 429.22 686.39 381.67 695.57 331.21 690.23 C 326.24 687.27 320.01 685.79 312.53 685.79 C 273.37 674.95 239.30 655.43 210.33 627.24 C 224.14 610.53 263.59 574.84 283.99 580.82 C 292.50 583.35 298.23 594.38 307.05 599.37 C 309.31 600.69 311.42 600.48 313.40 598.76 C 320.42 592.59 326.67 583.06 332.14 570.16 C 341.81 547.35 382.68 521.95 407.58 539.03 C 430.45 554.68 435.88 586.43 421.27 610.10 C 419.62 612.77 419.51 616.10 420.99 618.87 C 422.46 621.64 425.29 623.41 428.42 623.54 C 458.38 624.83 459.24 638.70 458.68 663.97 C 458.64 666.77 459.92 667.69 462.50 666.75 L 473.85 662.68 Z" fill="#b5e1e8" fill-rule="nonzero" group-id="1" id="路径" node-id="46" stroke="none" target-height="173.62" target-width="263.52002" target-x="210.33" target-y="521.95"></path><path d="M 1099.50 574.84 C 1101.35 587.62 1099.97 599.95 1095.37 611.83 C 1093.68 599.09 1095.06 586.76 1099.50 574.84 Z" fill="#a26064" fill-rule="nonzero" group-id="1" id="路径" node-id="47" stroke="none" target-height="36.98999" target-width="7.669922" target-x="1093.68" target-y="574.84"></path><path d="M 808.93 606.52 C 804.06 612.44 802.27 614.60 804.24 621.56 C 804.90 623.87 806.40 624.73 808.74 624.15 C 812.03 623.37 814.70 624.34 816.75 627.05 C 819.34 630.50 818.48 632.08 814.16 631.80 L 800.05 630.75 C 797.46 630.54 796.17 629.15 796.17 626.56 L 796.17 584.15 C 796.17 582.38 796.99 581.19 798.63 580.57 C 803.97 578.48 809.29 578.83 814.60 581.62 C 818.95 583.92 818.73 585.59 813.92 586.61 C 811.16 587.23 808.33 587.66 805.41 587.91 C 802.41 588.16 802.00 589.33 804.18 591.42 C 810.59 597.55 812.17 602.58 808.93 606.52 Z" fill="#a26064" fill-rule="nonzero" group-id="1" id="路径" node-id="48" stroke="none" target-height="53.600037" target-width="23.170044" target-x="796.17" target-y="578.48"></path><path d="M 899.17 612.13 L 895.96 628.90 C 895.66 630.35 894.32 631.33 892.85 631.19 C 891.38 631.05 890.25 629.82 890.23 628.35 L 890.17 585.69 C 890.13 581.58 892.16 579.48 896.27 579.40 C 906.26 579.20 911.29 583.33 911.37 591.79 C 911.45 604.12 912.30 616.53 913.90 629.02 C 914.76 635.84 913.20 636.44 909.21 630.81 C 905.93 626.13 904.82 620.93 905.89 615.22 C 906.34 612.79 905.39 611.19 903.05 610.41 C 902.47 610.24 901.88 610.18 901.26 610.22 C 900.11 610.39 899.41 611.02 899.17 612.13 Z M 898.30 587.66 C 895.76 591.73 895.49 595.98 897.50 600.42 C 898.69 602.93 900.40 603.36 902.62 601.72 C 908.78 597.09 907.30 589.26 900.34 586.92 C 899.57 586.71 898.75 587.00 898.30 587.66 L 898.30 587.66 Z" fill="#a26064" fill-rule="nonzero" group-id="1" id="形状" node-id="49" stroke="none" target-height="57.23999" target-width="24.630005" target-x="890.13" target-y="579.2"></path><path d="M 977.93 619.98 C 977.94 623.07 976.73 626.04 974.55 628.23 C 972.37 630.42 969.41 631.66 966.32 631.67 L 965.09 631.68 C 962.00 631.69 959.03 630.47 956.84 628.29 C 954.65 626.11 953.41 623.16 953.40 620.07 L 953.30 591.22 C 953.29 588.13 954.50 585.16 956.68 582.97 C 958.86 580.78 961.82 579.54 964.91 579.53 L 966.14 579.52 C 969.23 579.51 972.20 580.73 974.39 582.91 C 976.58 585.08 977.82 588.04 977.83 591.13 L 977.93 619.98 Z M 964.75 586.86 C 956.86 589.63 959.33 614.11 960.44 620.76 C 960.89 623.23 962.35 624.36 964.81 624.15 L 968.27 623.91 C 971.18 623.66 972.52 622.10 972.27 619.22 L 969.93 590.25 C 969.82 589.05 969.17 587.96 968.16 587.30 C 967.15 586.64 965.90 586.48 964.75 586.86 L 964.75 586.86 Z" fill="#a26064" fill-rule="nonzero" group-id="1" id="形状" node-id="50" stroke="none" target-height="52.179993" target-width="24.650024" target-x="953.29" target-y="579.51"></path><path d="M 1030.40 590.31 L 1030.40 597.96 C 1030.40 601.00 1031.86 602.07 1034.78 601.16 C 1037.12 600.46 1039.05 600.98 1040.57 602.70 C 1041.93 604.22 1041.74 605.50 1040.02 606.52 L 1029.97 612.44 C 1026.85 614.29 1026.58 616.49 1029.17 619.04 L 1032.68 622.55 C 1034.24 624.11 1036.09 624.65 1038.23 624.15 C 1040.61 623.62 1042.54 624.32 1044.02 626.25 C 1046.41 629.29 1045.65 630.85 1041.74 630.93 L 1027.07 631.24 C 1024.15 631.28 1022.69 629.85 1022.69 626.93 L 1022.69 585.38 C 1022.69 582.83 1023.93 581.19 1026.39 580.45 C 1032.06 578.81 1037.67 579.40 1043.22 582.24 C 1049.06 585.24 1048.69 586.82 1042.11 586.98 L 1033.42 587.23 C 1031.41 587.27 1030.40 588.30 1030.40 590.31 Z" fill="#a26064" fill-rule="nonzero" group-id="1" id="路径" node-id="51" stroke="none" target-height="52.47003" target-width="26.370056" target-x="1022.69" target-y="578.81"></path><path d="M 835.06 611.52 C 834.99 612.54 835.77 613.42 836.79 613.49 C 837.81 613.56 838.69 612.79 838.76 611.76 C 839.81 607.33 843.75 580.02 848.56 581.01 C 850.66 581.46 851.50 582.73 851.09 584.83 L 842.83 628.90 C 842.41 631.48 840.18 633.38 837.56 633.36 C 834.94 633.35 832.73 631.43 832.35 628.84 L 824.83 586.49 C 824.34 583.78 825.40 582.11 828.03 581.50 C 834.69 579.90 834.69 606.65 835.06 611.52 Z" fill="#a26064" fill-rule="nonzero" group-id="1" id="路径" node-id="52" stroke="none" target-height="53.47998" target-width="27.159973" target-x="824.34" target-y="579.9"></path><path d="M 869.95 624.28 C 873.85 623.50 877.57 624.26 881.11 626.56 C 884.93 629.02 884.58 630.52 880.06 631.06 C 874.26 631.71 868.45 631.32 862.61 629.89 C 860.44 629.35 859.35 627.95 859.35 625.69 L 859.41 584.15 C 859.41 581.89 860.54 580.80 862.80 580.88 L 880.37 581.37 C 885.46 581.54 885.79 582.87 881.35 585.38 C 878.02 587.31 874.49 587.85 870.75 586.98 C 867.92 586.33 866.35 587.46 866.07 590.37 L 865.39 597.28 C 865.14 599.66 866.21 600.87 868.59 600.92 C 872.21 600.96 875.70 601.72 879.07 603.20 C 885.15 605.87 884.87 607.20 878.21 607.20 L 870.69 607.20 C 868.06 607.20 866.60 608.52 866.31 611.15 L 865.39 620.15 C 865.02 623.60 866.54 624.98 869.95 624.28 Z" fill="#422845" fill-rule="nonzero" group-id="1" id="路径" node-id="53" stroke="none" target-height="50.910034" target-width="26.440002" target-x="859.35" target-y="580.8"></path><path d="M 934.80 594.63 L 941.33 582.11 C 942.11 580.68 943.20 580.37 944.60 581.19 L 945.95 581.99 C 947.43 582.90 947.74 584.09 946.88 585.57 C 941.39 594.87 936.58 630.56 933.38 631.86 C 932.29 632.31 931.04 632.17 930.09 631.48 C 929.13 630.78 928.60 629.64 928.69 628.47 C 930.01 613.43 927.40 599.07 920.86 585.38 C 920.25 584.03 920.56 582.98 921.79 582.24 L 923.88 581.01 C 924.99 580.35 925.98 580.49 926.84 581.44 C 929.60 584.31 930.73 587.79 930.23 591.85 C 929.04 601.84 930.56 602.76 934.80 594.63 Z" fill="#a26064" fill-rule="nonzero" group-id="1" id="路径" node-id="54" stroke="none" target-height="51.960022" target-width="27.48999" target-x="920.25" target-y="580.35"></path><path d="M 988.36 583.96 C 988.35 581.78 990.01 579.96 992.18 579.76 C 994.35 579.57 996.31 581.08 996.68 583.22 C 999.52 599.00 998.33 614.48 993.11 629.64 C 990.44 637.32 989.06 637.12 988.98 629.02 L 988.36 583.96 Z" fill="#422845" fill-rule="nonzero" group-id="1" id="路径" node-id="55" stroke="none" target-height="57.75" target-width="11.170044" target-x="988.35" target-y="579.57"></path><path d="M 1007.53 582.05 C 1007.62 581.08 1008.22 580.24 1009.10 579.83 C 1009.98 579.42 1011.02 579.51 1011.81 580.07 C 1012.61 580.63 1013.04 581.58 1012.96 582.55 L 1011.66 627.73 C 1011.54 631.63 1009.91 632.43 1006.79 630.13 L 1003.34 627.61 C 1001.61 626.33 1000.91 624.63 1001.24 622.49 L 1007.53 582.05 Z" fill="#a26064" fill-rule="nonzero" group-id="1" id="路径" node-id="56" stroke="none" target-height="53.01001" target-width="12.130005" target-x="1000.91" target-y="579.42"></path><path d="M 898.30 587.66 C 898.75 587.00 899.57 586.71 900.34 586.92 C 907.30 589.26 908.78 597.09 902.62 601.72 C 900.40 603.36 898.69 602.93 897.50 600.42 C 895.49 595.98 895.76 591.73 898.30 587.66 Z" fill="#f7ede5" fill-rule="nonzero" group-id="1" id="路径" node-id="57" stroke="none" target-height="16.649963" target-width="13.290039" target-x="895.49" target-y="586.71"></path><path d="M 960.44 620.76 C 959.33 614.11 956.86 589.63 964.75 586.86 C 965.90 586.48 967.15 586.64 968.16 587.30 C 969.17 587.96 969.82 589.05 969.93 590.25 L 972.27 619.22 C 972.52 622.10 971.18 623.66 968.27 623.91 L 964.81 624.15 C 962.35 624.36 960.89 623.23 960.44 620.76 Z" fill="#f7ede5" fill-rule="nonzero" group-id="1" id="路径" node-id="58" stroke="none" target-height="37.880005" target-width="15.660034" target-x="956.86" target-y="586.48"></path><path d="M 198.25 616.20 L 210.33 627.24 C 239.30 655.43 273.37 674.95 312.53 685.79 L 270.56 814.68 C 269.90 816.74 268.60 818.24 266.67 819.18 L 130.69 886.13 C 101.93 781.87 124.45 691.90 198.25 616.20 Z" fill="#e26452" fill-rule="nonzero" group-id="1" id="路径" node-id="59" stroke="none" target-height="269.93" target-width="210.6" target-x="101.93" target-y="616.2"></path><path d="M 1193.50 628.78 C 1195.39 659.39 1191.45 689.18 1181.67 718.16 L 1193.50 628.78 Z" fill="#f7ede5" fill-rule="nonzero" group-id="1" id="路径" node-id="60" stroke="none" target-height="89.379944" target-width="13.719971" target-x="1181.67" target-y="628.78"></path><path d="M 700.38 765.93 L 567.11 765.99 C 566.04 765.99 565.38 765.47 565.14 764.45 C 565.01 763.91 564.89 763.38 564.77 762.84 L 565.26 673.47 L 566.31 644.19 L 565.44 634.57 C 565.20 631.74 566.49 630.32 569.33 630.32 L 697.42 630.32 C 699.76 630.32 700.93 631.49 700.93 633.83 L 700.38 765.93 Z" fill="#e26452" fill-rule="nonzero" group-id="1" id="路径" node-id="61" stroke="none" target-height="135.66998" target-width="136.15997" target-x="564.77" target-y="630.32"></path><path d="M 566.31 644.19 L 565.26 673.47 C 562.05 663.44 562.40 653.68 566.31 644.19 Z" fill="#ff9582" fill-rule="nonzero" group-id="1" id="路径" node-id="62" stroke="none" target-height="29.279968" target-width="4.26001" target-x="562.05" target-y="644.19"></path><path d="M 1051.73 736.65 L 1042.48 770.55 C 1041.91 758.26 1044.99 746.96 1051.73 736.65 Z" fill="#f7ede5" fill-rule="nonzero" group-id="1" id="路径" node-id="63" stroke="none" target-height="33.899963" target-width="9.819946" target-x="1041.91" target-y="736.65"></path><path d="M 564.77 762.84 C 564.89 763.38 565.01 763.91 565.14 764.45 C 565.38 765.47 566.04 765.99 567.11 765.99 L 700.38 765.93 L 573.64 767.04 C 568.34 767.12 565.73 769.79 565.81 775.05 L 566.18 803.53 C 564.05 810.80 564.17 818.38 566.55 826.27 L 566.80 835.27 C 564.01 840.00 563.92 844.70 566.55 849.39 C 564.58 852.96 564.15 856.48 565.26 859.93 L 565.26 886.13 L 566.55 895.13 L 561.44 900.61 C 559.96 902.17 558.15 902.95 556.01 902.95 L 432.24 903.26 C 430.31 903.30 428.93 902.44 428.11 900.67 L 424.78 893.58 L 426.08 881.50 C 428.99 873.24 428.56 865.46 424.78 858.14 L 426.32 850.44 C 429.20 844.35 428.68 838.70 424.78 833.48 L 426.08 827.57 C 428.83 819.27 428.91 810.97 426.32 802.66 L 427.62 771.91 C 427.70 769.93 428.68 768.66 430.58 768.08 C 444.63 763.83 459.05 767.59 470.15 767.16 C 491.23 766.24 545.66 772.21 564.77 762.84 Z" fill="#b5e1e8" fill-rule="nonzero" group-id="1" id="路径" node-id="64" stroke="none" target-height="140.45996" target-width="275.6" target-x="424.78" target-y="762.84"></path><path d="M 1059.43 819.86 C 1055.41 836.88 1048.42 848.30 1038.47 854.13 C 997.46 878.34 956.04 902.32 914.21 926.07 C 900.32 929.36 886.14 929.83 871.68 927.49 L 1059.43 819.86 Z" fill="#6e72ff" fill-rule="nonzero" group-id="1" id="路径" node-id="65" stroke="none" target-height="109.97003" target-width="187.75006" target-x="871.68" target-y="819.86"></path><path d="M 426.08 827.57 L 424.78 833.48 C 409.25 835.17 393.65 835.81 378.00 835.40 C 365.24 835.09 356.85 841.31 345.88 846.43 C 342.55 847.95 342.74 848.75 346.44 848.83 L 426.32 850.44 L 424.78 858.14 C 396.59 858.35 368.38 858.45 340.15 858.45 C 318.20 858.51 296.94 873.80 277.83 883.78 C 276.87 884.32 276.40 885.45 276.69 886.52 C 276.98 887.58 277.96 888.31 279.06 888.28 C 323.36 887.01 368.19 885.67 413.56 884.28 C 417.88 884.15 422.05 883.23 426.08 881.50 L 424.78 893.58 C 404.48 900.08 385.35 909.20 367.39 920.95 C 365.30 922.31 365.50 922.99 368.01 922.99 C 419.99 923.23 472.10 922.84 524.33 921.82 C 545.60 921.38 562.49 907.45 581.41 898.45 C 584.25 897.10 584.20 895.80 581.29 894.57 C 576.56 892.60 571.65 892.78 566.55 895.13 L 565.26 886.13 C 580.92 885.94 594.66 888.71 609.21 881.50 C 621.83 875.30 634.07 868.66 645.95 861.59 C 646.59 861.17 646.89 860.38 646.69 859.65 C 646.49 858.92 645.83 858.43 645.08 858.45 L 565.26 859.93 C 564.15 856.48 564.58 852.96 566.55 849.39 C 612.23 851.92 668.08 858.45 689.03 835.70 C 690.27 834.35 689.96 833.67 688.11 833.67 L 566.80 835.27 L 566.55 826.27 L 972.21 826.33 C 973.07 826.33 973.92 826.48 974.74 826.77 C 982.38 829.77 983.51 832.66 978.13 835.46 C 921.75 864.39 865.39 893.34 809.05 922.31 C 803.75 925.02 796.88 926.42 788.46 926.50 C 565.53 928.84 342.59 931.29 119.66 933.84 C 104.87 934.00 92.37 933.34 82.18 931.86 C 78.90 931.37 78.61 930.16 81.32 928.23 C 87.77 923.58 95.27 919.17 103.82 914.97 C 145.57 894.51 198.95 867.49 263.96 833.92 C 272.59 829.48 281.69 827.14 291.27 826.89 C 336.22 825.62 381.16 825.84 426.08 827.57 Z M 836.23 833.55 C 785.19 836.81 720.04 824.24 687.31 847.11 C 684.84 848.83 685.11 849.76 688.11 849.88 C 751.85 851.81 793.66 851.89 813.55 850.13 C 820.08 849.55 827.93 844.68 837.09 835.52 C 838.53 834.08 838.25 833.42 836.23 833.55 Z M 835.99 849.57 C 871.00 851.18 934.12 859.74 957.85 835.15 C 959.16 833.75 958.88 833.14 956.99 833.30 C 916.86 836.88 870.01 825.53 835.31 846.92 C 832.68 848.57 832.90 849.45 835.99 849.57 Z M 252.74 850.31 C 281.77 851.55 324.12 858.08 346.37 835.52 C 347.28 834.57 347.07 834.14 345.76 834.22 C 327.18 835.29 308.59 835.66 289.97 835.33 C 275.61 835.09 265.19 841.93 252.19 846.80 C 251.30 847.03 250.73 847.90 250.88 848.81 C 251.02 849.71 251.83 850.36 252.74 850.31 Z M 184.88 886.13 C 205.34 885.82 225.00 887.79 245.78 886.37 C 268.52 884.83 285.17 873.12 303.84 861.28 C 306.39 859.68 306.16 858.82 303.16 858.70 C 285.25 858.04 267.29 857.94 249.29 858.39 C 223.77 859.00 205.59 870.28 183.83 882.12 C 183.01 882.61 182.61 883.59 182.85 884.52 C 183.09 885.44 183.92 886.10 184.88 886.13 Z M 629.74 886.50 C 665.49 886.33 700.03 886.11 733.35 885.82 C 756.16 885.63 774.04 873.37 792.78 862.15 C 796.31 860.05 796.02 858.96 791.91 858.88 C 754.48 857.85 717.02 857.79 679.54 858.70 C 659.75 859.19 644.22 871.89 628.19 879.90 C 619.20 884.38 619.71 886.58 629.74 886.50 Z M 847.51 885.82 C 872.72 884.83 890.48 872.87 911.68 861.22 C 912.27 860.89 912.57 860.20 912.39 859.55 C 912.22 858.89 911.62 858.44 910.94 858.45 C 881.48 858.39 829.64 852.10 803.93 864.92 C 792.80 870.47 781.78 876.43 770.89 882.80 C 767.85 884.56 768.10 885.51 771.63 885.63 C 797.03 886.70 822.32 886.76 847.51 885.82 Z M 110.35 925.08 C 137.29 924.84 179.39 930.08 203.18 917.62 C 215.14 911.42 227.18 904.99 239.30 898.33 C 242.88 896.36 242.63 895.21 238.56 894.88 C 210.91 892.62 188.90 892.37 172.55 894.14 C 150.48 896.52 129.36 905.75 109.18 921.82 C 106.39 924.03 106.78 925.12 110.35 925.08 Z M 209.53 925.08 L 342.68 923.54 C 344.85 923.54 346.91 923.03 348.84 922.00 L 393.90 898.15 C 394.81 897.62 395.27 896.56 395.01 895.54 C 394.75 894.51 393.84 893.79 392.79 893.77 C 355.07 893.93 317.34 893.91 279.62 893.71 C 254.16 893.58 230.30 909.86 208.67 921.82 C 207.94 922.18 207.56 923.01 207.77 923.80 C 207.98 924.59 208.72 925.13 209.53 925.08 Z M 559.22 921.94 C 600.11 919.51 641.10 919.04 682.19 920.52 C 684.37 920.60 686.45 920.15 688.42 919.17 L 727.81 898.89 C 728.96 898.35 729.57 897.08 729.27 895.85 C 728.97 894.62 727.84 893.77 726.57 893.83 L 607.30 893.83 C 605.20 893.83 603.23 894.32 601.38 895.31 L 553.05 920.58 C 552.66 920.79 552.42 921.21 552.44 921.65 C 552.45 922.09 552.71 922.49 553.12 922.68 C 555.54 923.75 557.58 923.50 559.22 921.94 Z M 748.33 895.00 C 747.89 895.00 747.46 895.13 747.10 895.37 C 735.63 903.14 723.51 909.57 710.73 914.67 C 705.27 916.88 705.47 918.06 711.35 918.18 C 735.35 918.75 759.41 918.88 783.53 918.55 C 806.09 918.24 821.19 907.70 840.48 898.27 C 841.57 897.75 842.14 896.55 841.85 895.39 C 841.57 894.23 840.51 893.42 839.31 893.46 L 748.33 895.00 Z" fill="#f7ede5" fill-rule="nonzero" group-id="1" id="形状" node-id="66" stroke="none" target-height="109.76001" target-width="904.9" target-x="78.61" target-y="824.24"></path><path d="M 566.55 849.39 C 563.92 844.70 564.01 840.00 566.80 835.27 L 688.11 833.67 C 689.96 833.67 690.27 834.35 689.03 835.70 C 668.08 858.45 612.23 851.92 566.55 849.39 Z" fill="#422845" fill-rule="nonzero" group-id="1" id="路径" node-id="67" stroke="none" target-height="24.78003" target-width="126.35004" target-x="563.92" target-y="833.67"></path><path d="M 687.31 847.11 C 720.04 824.24 785.19 836.81 836.23 833.55 C 838.25 833.42 838.53 834.08 837.09 835.52 C 827.93 844.68 820.08 849.55 813.55 850.13 C 793.66 851.89 751.85 851.81 688.11 849.88 C 685.11 849.76 684.84 848.83 687.31 847.11 Z" fill="#422845" fill-rule="nonzero" group-id="1" id="路径" node-id="68" stroke="none" target-height="27.650024" target-width="153.69" target-x="684.84" target-y="824.24"></path><path d="M 835.99 849.57 C 832.90 849.45 832.68 848.57 835.31 846.92 C 870.01 825.53 916.86 836.88 956.99 833.30 C 958.88 833.14 959.16 833.75 957.85 835.15 C 934.12 859.74 871.00 851.18 835.99 849.57 Z" fill="#422845" fill-rule="nonzero" group-id="1" id="路径" node-id="69" stroke="none" target-height="34.20996" target-width="126.47998" target-x="832.68" target-y="825.53"></path><path d="M 346.37 835.52 C 324.12 858.08 281.77 851.55 252.74 850.31 C 251.83 850.36 251.02 849.71 250.88 848.81 C 250.73 847.90 251.30 847.03 252.19 846.80 C 265.19 841.93 275.61 835.09 289.97 835.33 C 308.59 835.66 327.18 835.29 345.76 834.22 C 347.07 834.14 347.28 834.57 346.37 835.52 Z" fill="#422845" fill-rule="nonzero" group-id="1" id="路径" node-id="70" stroke="none" target-height="23.940002" target-width="96.55" target-x="250.73" target-y="834.14"></path><path d="M 424.78 833.48 C 428.68 838.70 429.20 844.35 426.32 850.44 L 346.44 848.83 C 342.74 848.75 342.55 847.95 345.88 846.43 C 356.85 841.31 365.24 835.09 378.00 835.40 C 393.65 835.81 409.25 835.17 424.78 833.48 Z" fill="#422845" fill-rule="nonzero" group-id="1" id="路径" node-id="71" stroke="none" target-height="16.960022" target-width="86.650024" target-x="342.55" target-y="833.48"></path><path d="M 565.26 886.13 L 565.26 859.93 L 645.08 858.45 C 645.83 858.43 646.49 858.92 646.69 859.65 C 646.89 860.38 646.59 861.17 645.95 861.59 C 634.07 868.66 621.83 875.30 609.21 881.50 C 594.66 888.71 580.92 885.94 565.26 886.13 Z" fill="#422845" fill-rule="nonzero" group-id="1" id="路径" node-id="72" stroke="none" target-height="30.28003" target-width="81.630005" target-x="565.26" target-y="858.43"></path><path d="M 245.78 886.37 C 225.00 887.79 205.34 885.82 184.88 886.13 C 183.92 886.10 183.09 885.44 182.85 884.52 C 182.61 883.59 183.01 882.61 183.83 882.12 C 205.59 870.28 223.77 859.00 249.29 858.39 C 267.29 857.94 285.25 858.04 303.16 858.70 C 306.16 858.82 306.39 859.68 303.84 861.28 C 285.17 873.12 268.52 884.83 245.78 886.37 Z" fill="#422845" fill-rule="nonzero" group-id="1" id="路径" node-id="73" stroke="none" target-height="29.849976" target-width="123.780014" target-x="182.61" target-y="857.94"></path><path d="M 424.78 858.14 C 428.56 865.46 428.99 873.24 426.08 881.50 C 422.05 883.23 417.88 884.15 413.56 884.28 C 368.19 885.67 323.36 887.01 279.06 888.28 C 277.96 888.31 276.98 887.58 276.69 886.52 C 276.40 885.45 276.87 884.32 277.83 883.78 C 296.94 873.80 318.20 858.51 340.15 858.45 C 368.38 858.45 396.59 858.35 424.78 858.14 Z" fill="#422845" fill-rule="nonzero" group-id="1" id="路径" node-id="74" stroke="none" target-height="30.169983" target-width="152.59" target-x="276.4" target-y="858.14"></path><path d="M 629.74 886.50 C 619.71 886.58 619.20 884.38 628.19 879.90 C 644.22 871.89 659.75 859.19 679.54 858.70 C 717.02 857.79 754.48 857.85 791.91 858.88 C 796.02 858.96 796.31 860.05 792.78 862.15 C 774.04 873.37 756.16 885.63 733.35 885.82 C 700.03 886.11 665.49 886.33 629.74 886.50 Z" fill="#422845" fill-rule="nonzero" group-id="1" id="路径" node-id="75" stroke="none" target-height="28.79004" target-width="177.10999" target-x="619.2" target-y="857.79"></path><path d="M 847.51 885.82 C 822.32 886.76 797.03 886.70 771.63 885.63 C 768.10 885.51 767.85 884.56 770.89 882.80 C 781.78 876.43 792.80 870.47 803.93 864.92 C 829.64 852.10 881.48 858.39 910.94 858.45 C 911.62 858.44 912.22 858.89 912.39 859.55 C 912.57 860.20 912.27 860.89 911.68 861.22 C 890.48 872.87 872.72 884.83 847.51 885.82 Z" fill="#422845" fill-rule="nonzero" group-id="1" id="路径" node-id="76" stroke="none" target-height="34.660034" target-width="144.72003" target-x="767.85" target-y="852.1"></path><path d="M 109.18 921.82 C 129.36 905.75 150.48 896.52 172.55 894.14 C 188.90 892.37 210.91 892.62 238.56 894.88 C 242.63 895.21 242.88 896.36 239.30 898.33 C 227.18 904.99 215.14 911.42 203.18 917.62 C 179.39 930.08 137.29 924.84 110.35 925.08 C 106.78 925.12 106.39 924.03 109.18 921.82 Z" fill="#422845" fill-rule="nonzero" group-id="1" id="路径" node-id="77" stroke="none" target-height="37.710022" target-width="136.49" target-x="106.39" target-y="892.37"></path><path d="M 342.68 923.54 L 209.53 925.08 C 208.72 925.13 207.98 924.59 207.77 923.80 C 207.56 923.01 207.94 922.18 208.67 921.82 C 230.30 909.86 254.16 893.58 279.62 893.71 C 317.34 893.91 355.07 893.93 392.79 893.77 C 393.84 893.79 394.75 894.51 395.01 895.54 C 395.27 896.56 394.81 897.62 393.90 898.15 L 348.84 922.00 C 346.91 923.03 344.85 923.54 342.68 923.54 Z" fill="#422845" fill-rule="nonzero" group-id="1" id="路径" node-id="78" stroke="none" target-height="31.549988" target-width="187.70999" target-x="207.56" target-y="893.58"></path><path d="M 424.78 893.58 L 428.11 900.67 C 428.93 902.44 430.31 903.30 432.24 903.26 L 556.01 902.95 C 558.15 902.95 559.96 902.17 561.44 900.61 L 566.55 895.13 C 571.65 892.78 576.56 892.60 581.29 894.57 C 584.20 895.80 584.25 897.10 581.41 898.45 C 562.49 907.45 545.60 921.38 524.33 921.82 C 472.10 922.84 419.99 923.23 368.01 922.99 C 365.50 922.99 365.30 922.31 367.39 920.95 C 385.35 909.20 404.48 900.08 424.78 893.58 Z" fill="#422845" fill-rule="nonzero" group-id="1" id="路径" node-id="79" stroke="none" target-height="30.630005" target-width="218.95001" target-x="365.3" target-y="892.6"></path><path d="M 559.22 921.94 C 557.58 923.50 555.54 923.75 553.12 922.68 C 552.71 922.49 552.45 922.09 552.44 921.65 C 552.42 921.21 552.66 920.79 553.05 920.58 L 601.38 895.31 C 603.23 894.32 605.20 893.83 607.30 893.83 L 726.57 893.83 C 727.84 893.77 728.97 894.62 729.27 895.85 C 729.57 897.08 728.96 898.35 727.81 898.89 L 688.42 919.17 C 686.45 920.15 684.37 920.60 682.19 920.52 C 641.10 919.04 600.11 919.51 559.22 921.94 Z" fill="#422845" fill-rule="nonzero" group-id="1" id="路径" node-id="80" stroke="none" target-height="29.97998" target-width="177.15002" target-x="552.42" target-y="893.77"></path><path d="M 748.33 895.00 L 839.31 893.46 C 840.51 893.42 841.57 894.23 841.85 895.39 C 842.14 896.55 841.57 897.75 840.48 898.27 C 821.19 907.70 806.09 918.24 783.53 918.55 C 759.41 918.88 735.35 918.75 711.35 918.18 C 705.47 918.06 705.27 916.88 710.73 914.67 C 723.51 909.57 735.63 903.14 747.10 895.37 C 747.46 895.13 747.89 895.00 748.33 895.00 L 748.33 895.00 Z" fill="#422845" fill-rule="nonzero" group-id="1" id="路径" node-id="81" stroke="none" target-height="25.460022" target-width="136.87" target-x="705.27" target-y="893.42"></path><path d="M 914.21 926.07 L 947.25 929.83 C 949.26 930.03 950.27 931.14 950.27 933.16 L 950.27 1063.40 C 950.27 1064.91 949.03 1066.14 947.49 1066.18 L 816.88 1066.55 C 814.77 1066.55 813.05 1064.81 813.05 1062.66 L 812.87 978.59 L 812.87 957.01 L 813.61 933.10 C 813.69 930.55 815.01 929.23 817.55 929.15 L 871.68 927.49 C 886.14 929.83 900.32 929.36 914.21 926.07 Z" fill="#b5e1e8" fill-rule="nonzero" group-id="1" id="路径" node-id="82" stroke="none" target-height="140.48004" target-width="137.40002" target-x="812.87" target-y="926.07"></path><path d="M 0.76 952.39 C 10.62 953.62 22.64 955.59 32.44 955.53 C 281.88 953.77 531.32 953.36 780.76 954.30 C 791.52 954.34 802.23 955.25 812.87 957.01 L 812.87 978.59 L 575.80 978.83 L 182.84 978.83 L 155.10 978.83 C 129.95 979.20 22.95 984.50 7.17 971.99 C 0.84 966.94 -1.30 960.40 0.76 952.39 Z" fill="#6e72ff" fill-rule="nonzero" group-id="1" id="路径" node-id="83" stroke="none" target-height="32.109985" target-width="814.17" target-x="-1.3" target-y="952.39"></path><path d="M 575.80 978.83 C 469.35 1099.65 291.27 1091.20 182.84 978.83 L 575.80 978.83 Z" fill="#e26452" fill-rule="nonzero" group-id="1" id="路径" node-id="84" stroke="none" target-height="120.82001" target-width="392.96" target-x="182.84" target-y="978.83"></path></g></svg>